<?xml version="1.0" encoding="UTF-8"?>
<svg height="128px" viewBox="0 0 128 128" width="128px" xmlns="http://www.w3.org/2000/svg" xmlns:xlink="http://www.w3.org/1999/xlink">
    <defs>
        <filter id="a" height="100%" width="100%" x="0%" y="0%">
            <feColorMatrix color-interpolation-filters="sRGB" values="0 0 0 0 1 0 0 0 0 1 0 0 0 0 1 0 0 0 -1 1"/>
        </filter>
        <filter id="b" height="100%" width="100%" x="0%" y="0%">
            <feImage height="153.6" result="source" width="153.6" xlink:href="#k"/>
            <feImage height="153.6" result="destination" width="153.6" xlink:href="#l"/>
            <feBlend color-interpolation-filters="sRGB" in="source" in2="destination" mode="multiply"/>
        </filter>
        <filter id="c" height="100%" width="100%" x="0%" y="0%">
            <feImage height="153.6" result="source" width="153.6" xlink:href="#m"/>
            <feImage height="153.6" result="destination" width="153.6" xlink:href="#n"/>
            <feComposite color-interpolation-filters="sRGB" in="source" in2="destination" k1="0" k2="1" k3="1" k4="0" operator="arithmetic"/>
        </filter>
        <filter id="d" height="100%" width="100%" x="0%" y="0%">
            <feColorMatrix color-interpolation-filters="sRGB" values="0 0 0 0 1 0 0 0 0 1 0 0 0 0 1 0 0 0 1 0"/>
        </filter>
        <linearGradient id="e" gradientUnits="userSpaceOnUse" x1="7.9998935" x2="119.9998935" y1="116.000067" y2="116.000067">
            <stop offset="0" stop-color="#7b7876"/>
            <stop offset="0.0357143" stop-color="#c0bfbc"/>
            <stop offset="0.0713653" stop-color="#9a9996"/>
            <stop offset="0.928571" stop-color="#9a9996"/>
            <stop offset="0.964286" stop-color="#c0bfbc"/>
            <stop offset="1" stop-color="#77767b"/>
        </linearGradient>
        <clipPath id="f">
            <rect height="152" width="192"/>
        </clipPath>
        <g id="g">
            <rect fill="none" height="153.6" width="153.6"/>
            <rect fill="#ffffff" height="153.6" width="153.6"/>
        </g>
        <mask id="h">
            <use xlink:href="#g"/>
        </mask>
        <mask id="i">
            <use filter="url(#a)" xlink:href="#g"/>
        </mask>
        <mask id="j">
            <rect fill="#ffffff" height="153.6" width="153.6"/>
        </mask>
        <g id="k" mask="url(#j)">
            <g clip-path="url(#f)" transform="matrix(1 0 0 1 4.8 -3.2)">
                <path d="m 24 56 h 96 c 4.433594 0 8 3.566406 8 8 v 60 c 0 4.433594 -3.566406 8 -8 8 h -96 c -4.433594 0 -8 -3.566406 -8 -8 v -60 c 0 -4.433594 3.566406 -8 8 -8 z m 0 0" fill="#deddda"/>
            </g>
        </g>
        <g id="l" transform="matrix(1 0 0 1 12.8 12.8)">
            <path d="m 16 40 h 96 c 4.433594 0 8 3.566406 8 8 v 60 c 0 4.433594 -3.566406 8 -8 8 h -96 c -4.433594 0 -8 -3.566406 -8 -8 v -60 c 0 -4.433594 3.566406 -8 8 -8 z m 0 0" fill="url(#e)"/>
        </g>
        <g id="m" filter="url(#b)" mask="url(#h)">
            <rect height="153.6" width="153.6"/>
        </g>
        <g id="n" mask="url(#i)">
            <use xlink:href="#l"/>
        </g>
        <clipPath id="o">
            <path d="m 8 40 h 6 v 6 h -6 z m 0 0"/>
        </clipPath>
        <clipPath id="p">
            <path d="m 16 40 h 96 c 4.417969 0 8 3.582031 8 8 v 56 c 0 4.417969 -3.582031 8 -8 8 h -96 c -4.417969 0 -8 -3.582031 -8 -8 v -56 c 0 -4.417969 3.582031 -8 8 -8 z m 0 0"/>
        </clipPath>
        <clipPath id="q">
            <path d="m 14 40 h 8 v 6 h -8 z m 0 0"/>
        </clipPath>
        <clipPath id="r">
            <path d="m 16 40 h 96 c 4.417969 0 8 3.582031 8 8 v 56 c 0 4.417969 -3.582031 8 -8 8 h -96 c -4.417969 0 -8 -3.582031 -8 -8 v -56 c 0 -4.417969 3.582031 -8 8 -8 z m 0 0"/>
        </clipPath>
        <clipPath id="s">
            <path d="m 21 40 h 8 v 6 h -8 z m 0 0"/>
        </clipPath>
        <clipPath id="t">
            <path d="m 16 40 h 96 c 4.417969 0 8 3.582031 8 8 v 56 c 0 4.417969 -3.582031 8 -8 8 h -96 c -4.417969 0 -8 -3.582031 -8 -8 v -56 c 0 -4.417969 3.582031 -8 8 -8 z m 0 0"/>
        </clipPath>
        <clipPath id="u">
            <path d="m 29 40 h 7 v 6 h -7 z m 0 0"/>
        </clipPath>
        <clipPath id="v">
            <path d="m 16 40 h 96 c 4.417969 0 8 3.582031 8 8 v 56 c 0 4.417969 -3.582031 8 -8 8 h -96 c -4.417969 0 -8 -3.582031 -8 -8 v -56 c 0 -4.417969 3.582031 -8 8 -8 z m 0 0"/>
        </clipPath>
        <clipPath id="w">
            <path d="m 36 40 h 8 v 6 h -8 z m 0 0"/>
        </clipPath>
        <clipPath id="x">
            <path d="m 16 40 h 96 c 4.417969 0 8 3.582031 8 8 v 56 c 0 4.417969 -3.582031 8 -8 8 h -96 c -4.417969 0 -8 -3.582031 -8 -8 v -56 c 0 -4.417969 3.582031 -8 8 -8 z m 0 0"/>
        </clipPath>
        <clipPath id="y">
            <path d="m 44 40 h 7 v 6 h -7 z m 0 0"/>
        </clipPath>
        <clipPath id="z">
            <path d="m 16 40 h 96 c 4.417969 0 8 3.582031 8 8 v 56 c 0 4.417969 -3.582031 8 -8 8 h -96 c -4.417969 0 -8 -3.582031 -8 -8 v -56 c 0 -4.417969 3.582031 -8 8 -8 z m 0 0"/>
        </clipPath>
        <clipPath id="A">
            <path d="m 51 40 h 8 v 6 h -8 z m 0 0"/>
        </clipPath>
        <clipPath id="B">
            <path d="m 16 40 h 96 c 4.417969 0 8 3.582031 8 8 v 56 c 0 4.417969 -3.582031 8 -8 8 h -96 c -4.417969 0 -8 -3.582031 -8 -8 v -56 c 0 -4.417969 3.582031 -8 8 -8 z m 0 0"/>
        </clipPath>
        <clipPath id="C">
            <path d="m 59 40 h 7 v 6 h -7 z m 0 0"/>
        </clipPath>
        <clipPath id="D">
            <path d="m 16 40 h 96 c 4.417969 0 8 3.582031 8 8 v 56 c 0 4.417969 -3.582031 8 -8 8 h -96 c -4.417969 0 -8 -3.582031 -8 -8 v -56 c 0 -4.417969 3.582031 -8 8 -8 z m 0 0"/>
        </clipPath>
        <clipPath id="E">
            <path d="m 66 40 h 8 v 6 h -8 z m 0 0"/>
        </clipPath>
        <clipPath id="F">
            <path d="m 16 40 h 96 c 4.417969 0 8 3.582031 8 8 v 56 c 0 4.417969 -3.582031 8 -8 8 h -96 c -4.417969 0 -8 -3.582031 -8 -8 v -56 c 0 -4.417969 3.582031 -8 8 -8 z m 0 0"/>
        </clipPath>
        <clipPath id="G">
            <path d="m 74 40 h 7 v 6 h -7 z m 0 0"/>
        </clipPath>
        <clipPath id="H">
            <path d="m 16 40 h 96 c 4.417969 0 8 3.582031 8 8 v 56 c 0 4.417969 -3.582031 8 -8 8 h -96 c -4.417969 0 -8 -3.582031 -8 -8 v -56 c 0 -4.417969 3.582031 -8 8 -8 z m 0 0"/>
        </clipPath>
        <clipPath id="I">
            <path d="m 81 40 h 8 v 6 h -8 z m 0 0"/>
        </clipPath>
        <clipPath id="J">
            <path d="m 16 40 h 96 c 4.417969 0 8 3.582031 8 8 v 56 c 0 4.417969 -3.582031 8 -8 8 h -96 c -4.417969 0 -8 -3.582031 -8 -8 v -56 c 0 -4.417969 3.582031 -8 8 -8 z m 0 0"/>
        </clipPath>
        <clipPath id="K">
            <path d="m 89 40 h 7 v 6 h -7 z m 0 0"/>
        </clipPath>
        <clipPath id="L">
            <path d="m 16 40 h 96 c 4.417969 0 8 3.582031 8 8 v 56 c 0 4.417969 -3.582031 8 -8 8 h -96 c -4.417969 0 -8 -3.582031 -8 -8 v -56 c 0 -4.417969 3.582031 -8 8 -8 z m 0 0"/>
        </clipPath>
        <clipPath id="M">
            <path d="m 96 40 h 8 v 6 h -8 z m 0 0"/>
        </clipPath>
        <clipPath id="N">
            <path d="m 16 40 h 96 c 4.417969 0 8 3.582031 8 8 v 56 c 0 4.417969 -3.582031 8 -8 8 h -96 c -4.417969 0 -8 -3.582031 -8 -8 v -56 c 0 -4.417969 3.582031 -8 8 -8 z m 0 0"/>
        </clipPath>
        <clipPath id="O">
            <path d="m 103 40 h 8 v 6 h -8 z m 0 0"/>
        </clipPath>
        <clipPath id="P">
            <path d="m 16 40 h 96 c 4.417969 0 8 3.582031 8 8 v 56 c 0 4.417969 -3.582031 8 -8 8 h -96 c -4.417969 0 -8 -3.582031 -8 -8 v -56 c 0 -4.417969 3.582031 -8 8 -8 z m 0 0"/>
        </clipPath>
        <clipPath id="Q">
            <path d="m 111 40 h 8 v 6 h -8 z m 0 0"/>
        </clipPath>
        <clipPath id="R">
            <path d="m 16 40 h 96 c 4.417969 0 8 3.582031 8 8 v 56 c 0 4.417969 -3.582031 8 -8 8 h -96 c -4.417969 0 -8 -3.582031 -8 -8 v -56 c 0 -4.417969 3.582031 -8 8 -8 z m 0 0"/>
        </clipPath>
        <clipPath id="S">
            <path d="m 13 106 h 8 v 6 h -8 z m 0 0"/>
        </clipPath>
        <clipPath id="T">
            <path d="m 16 40 h 96 c 4.417969 0 8 3.582031 8 8 v 56 c 0 4.417969 -3.582031 8 -8 8 h -96 c -4.417969 0 -8 -3.582031 -8 -8 v -56 c 0 -4.417969 3.582031 -8 8 -8 z m 0 0"/>
        </clipPath>
        <clipPath id="U">
            <path d="m 21 106 h 7 v 6 h -7 z m 0 0"/>
        </clipPath>
        <clipPath id="V">
            <path d="m 16 40 h 96 c 4.417969 0 8 3.582031 8 8 v 56 c 0 4.417969 -3.582031 8 -8 8 h -96 c -4.417969 0 -8 -3.582031 -8 -8 v -56 c 0 -4.417969 3.582031 -8 8 -8 z m 0 0"/>
        </clipPath>
        <clipPath id="W">
            <path d="m 28 106 h 8 v 6 h -8 z m 0 0"/>
        </clipPath>
        <clipPath id="X">
            <path d="m 16 40 h 96 c 4.417969 0 8 3.582031 8 8 v 56 c 0 4.417969 -3.582031 8 -8 8 h -96 c -4.417969 0 -8 -3.582031 -8 -8 v -56 c 0 -4.417969 3.582031 -8 8 -8 z m 0 0"/>
        </clipPath>
        <clipPath id="Y">
            <path d="m 35 106 h 8 v 6 h -8 z m 0 0"/>
        </clipPath>
        <clipPath id="Z">
            <path d="m 16 40 h 96 c 4.417969 0 8 3.582031 8 8 v 56 c 0 4.417969 -3.582031 8 -8 8 h -96 c -4.417969 0 -8 -3.582031 -8 -8 v -56 c 0 -4.417969 3.582031 -8 8 -8 z m 0 0"/>
        </clipPath>
        <clipPath id="aa">
            <path d="m 43 106 h 8 v 6 h -8 z m 0 0"/>
        </clipPath>
        <clipPath id="ab">
            <path d="m 16 40 h 96 c 4.417969 0 8 3.582031 8 8 v 56 c 0 4.417969 -3.582031 8 -8 8 h -96 c -4.417969 0 -8 -3.582031 -8 -8 v -56 c 0 -4.417969 3.582031 -8 8 -8 z m 0 0"/>
        </clipPath>
        <clipPath id="ac">
            <path d="m 50 106 h 8 v 6 h -8 z m 0 0"/>
        </clipPath>
        <clipPath id="ad">
            <path d="m 16 40 h 96 c 4.417969 0 8 3.582031 8 8 v 56 c 0 4.417969 -3.582031 8 -8 8 h -96 c -4.417969 0 -8 -3.582031 -8 -8 v -56 c 0 -4.417969 3.582031 -8 8 -8 z m 0 0"/>
        </clipPath>
        <clipPath id="ae">
            <path d="m 58 106 h 8 v 6 h -8 z m 0 0"/>
        </clipPath>
        <clipPath id="af">
            <path d="m 16 40 h 96 c 4.417969 0 8 3.582031 8 8 v 56 c 0 4.417969 -3.582031 8 -8 8 h -96 c -4.417969 0 -8 -3.582031 -8 -8 v -56 c 0 -4.417969 3.582031 -8 8 -8 z m 0 0"/>
        </clipPath>
        <clipPath id="ag">
            <path d="m 65 106 h 8 v 6 h -8 z m 0 0"/>
        </clipPath>
        <clipPath id="ah">
            <path d="m 16 40 h 96 c 4.417969 0 8 3.582031 8 8 v 56 c 0 4.417969 -3.582031 8 -8 8 h -96 c -4.417969 0 -8 -3.582031 -8 -8 v -56 c 0 -4.417969 3.582031 -8 8 -8 z m 0 0"/>
        </clipPath>
        <clipPath id="ai">
            <path d="m 73 106 h 8 v 6 h -8 z m 0 0"/>
        </clipPath>
        <clipPath id="aj">
            <path d="m 16 40 h 96 c 4.417969 0 8 3.582031 8 8 v 56 c 0 4.417969 -3.582031 8 -8 8 h -96 c -4.417969 0 -8 -3.582031 -8 -8 v -56 c 0 -4.417969 3.582031 -8 8 -8 z m 0 0"/>
        </clipPath>
        <clipPath id="ak">
            <path d="m 80 106 h 8 v 6 h -8 z m 0 0"/>
        </clipPath>
        <clipPath id="al">
            <path d="m 16 40 h 96 c 4.417969 0 8 3.582031 8 8 v 56 c 0 4.417969 -3.582031 8 -8 8 h -96 c -4.417969 0 -8 -3.582031 -8 -8 v -56 c 0 -4.417969 3.582031 -8 8 -8 z m 0 0"/>
        </clipPath>
        <clipPath id="am">
            <path d="m 88 106 h 8 v 6 h -8 z m 0 0"/>
        </clipPath>
        <clipPath id="an">
            <path d="m 16 40 h 96 c 4.417969 0 8 3.582031 8 8 v 56 c 0 4.417969 -3.582031 8 -8 8 h -96 c -4.417969 0 -8 -3.582031 -8 -8 v -56 c 0 -4.417969 3.582031 -8 8 -8 z m 0 0"/>
        </clipPath>
        <clipPath id="ao">
            <path d="m 95 106 h 8 v 6 h -8 z m 0 0"/>
        </clipPath>
        <clipPath id="ap">
            <path d="m 16 40 h 96 c 4.417969 0 8 3.582031 8 8 v 56 c 0 4.417969 -3.582031 8 -8 8 h -96 c -4.417969 0 -8 -3.582031 -8 -8 v -56 c 0 -4.417969 3.582031 -8 8 -8 z m 0 0"/>
        </clipPath>
        <clipPath id="aq">
            <path d="m 103 106 h 7 v 6 h -7 z m 0 0"/>
        </clipPath>
        <clipPath id="ar">
            <path d="m 16 40 h 96 c 4.417969 0 8 3.582031 8 8 v 56 c 0 4.417969 -3.582031 8 -8 8 h -96 c -4.417969 0 -8 -3.582031 -8 -8 v -56 c 0 -4.417969 3.582031 -8 8 -8 z m 0 0"/>
        </clipPath>
        <clipPath id="as">
            <path d="m 110 106 h 8 v 6 h -8 z m 0 0"/>
        </clipPath>
        <clipPath id="at">
            <path d="m 16 40 h 96 c 4.417969 0 8 3.582031 8 8 v 56 c 0 4.417969 -3.582031 8 -8 8 h -96 c -4.417969 0 -8 -3.582031 -8 -8 v -56 c 0 -4.417969 3.582031 -8 8 -8 z m 0 0"/>
        </clipPath>
        <clipPath id="au">
            <path d="m 8 44 h 6 v 8 h -6 z m 0 0"/>
        </clipPath>
        <clipPath id="av">
            <path d="m 16 40 h 96 c 4.417969 0 8 3.582031 8 8 v 56 c 0 4.417969 -3.582031 8 -8 8 h -96 c -4.417969 0 -8 -3.582031 -8 -8 v -56 c 0 -4.417969 3.582031 -8 8 -8 z m 0 0"/>
        </clipPath>
        <clipPath id="aw">
            <path d="m 8 51 h 6 v 8 h -6 z m 0 0"/>
        </clipPath>
        <clipPath id="ax">
            <path d="m 16 40 h 96 c 4.417969 0 8 3.582031 8 8 v 56 c 0 4.417969 -3.582031 8 -8 8 h -96 c -4.417969 0 -8 -3.582031 -8 -8 v -56 c 0 -4.417969 3.582031 -8 8 -8 z m 0 0"/>
        </clipPath>
        <clipPath id="ay">
            <path d="m 8 59 h 6 v 8 h -6 z m 0 0"/>
        </clipPath>
        <clipPath id="az">
            <path d="m 16 40 h 96 c 4.417969 0 8 3.582031 8 8 v 56 c 0 4.417969 -3.582031 8 -8 8 h -96 c -4.417969 0 -8 -3.582031 -8 -8 v -56 c 0 -4.417969 3.582031 -8 8 -8 z m 0 0"/>
        </clipPath>
        <clipPath id="aA">
            <path d="m 8 66 h 6 v 8 h -6 z m 0 0"/>
        </clipPath>
        <clipPath id="aB">
            <path d="m 16 40 h 96 c 4.417969 0 8 3.582031 8 8 v 56 c 0 4.417969 -3.582031 8 -8 8 h -96 c -4.417969 0 -8 -3.582031 -8 -8 v -56 c 0 -4.417969 3.582031 -8 8 -8 z m 0 0"/>
        </clipPath>
        <clipPath id="aC">
            <path d="m 8 74 h 6 v 8 h -6 z m 0 0"/>
        </clipPath>
        <clipPath id="aD">
            <path d="m 16 40 h 96 c 4.417969 0 8 3.582031 8 8 v 56 c 0 4.417969 -3.582031 8 -8 8 h -96 c -4.417969 0 -8 -3.582031 -8 -8 v -56 c 0 -4.417969 3.582031 -8 8 -8 z m 0 0"/>
        </clipPath>
        <clipPath id="aE">
            <path d="m 8 81 h 6 v 8 h -6 z m 0 0"/>
        </clipPath>
        <clipPath id="aF">
            <path d="m 16 40 h 96 c 4.417969 0 8 3.582031 8 8 v 56 c 0 4.417969 -3.582031 8 -8 8 h -96 c -4.417969 0 -8 -3.582031 -8 -8 v -56 c 0 -4.417969 3.582031 -8 8 -8 z m 0 0"/>
        </clipPath>
        <clipPath id="aG">
            <path d="m 8 89 h 6 v 8 h -6 z m 0 0"/>
        </clipPath>
        <clipPath id="aH">
            <path d="m 16 40 h 96 c 4.417969 0 8 3.582031 8 8 v 56 c 0 4.417969 -3.582031 8 -8 8 h -96 c -4.417969 0 -8 -3.582031 -8 -8 v -56 c 0 -4.417969 3.582031 -8 8 -8 z m 0 0"/>
        </clipPath>
        <clipPath id="aI">
            <path d="m 8 96 h 6 v 8 h -6 z m 0 0"/>
        </clipPath>
        <clipPath id="aJ">
            <path d="m 16 40 h 96 c 4.417969 0 8 3.582031 8 8 v 56 c 0 4.417969 -3.582031 8 -8 8 h -96 c -4.417969 0 -8 -3.582031 -8 -8 v -56 c 0 -4.417969 3.582031 -8 8 -8 z m 0 0"/>
        </clipPath>
        <clipPath id="aK">
            <path d="m 8 104 h 6 v 7 h -6 z m 0 0"/>
        </clipPath>
        <clipPath id="aL">
            <path d="m 16 40 h 96 c 4.417969 0 8 3.582031 8 8 v 56 c 0 4.417969 -3.582031 8 -8 8 h -96 c -4.417969 0 -8 -3.582031 -8 -8 v -56 c 0 -4.417969 3.582031 -8 8 -8 z m 0 0"/>
        </clipPath>
        <clipPath id="aM">
            <path d="m 114 45 h 6 v 7 h -6 z m 0 0"/>
        </clipPath>
        <clipPath id="aN">
            <path d="m 16 40 h 96 c 4.417969 0 8 3.582031 8 8 v 56 c 0 4.417969 -3.582031 8 -8 8 h -96 c -4.417969 0 -8 -3.582031 -8 -8 v -56 c 0 -4.417969 3.582031 -8 8 -8 z m 0 0"/>
        </clipPath>
        <clipPath id="aO">
            <path d="m 114 52 h 6 v 8 h -6 z m 0 0"/>
        </clipPath>
        <clipPath id="aP">
            <path d="m 16 40 h 96 c 4.417969 0 8 3.582031 8 8 v 56 c 0 4.417969 -3.582031 8 -8 8 h -96 c -4.417969 0 -8 -3.582031 -8 -8 v -56 c 0 -4.417969 3.582031 -8 8 -8 z m 0 0"/>
        </clipPath>
        <clipPath id="aQ">
            <path d="m 114 60 h 6 v 7 h -6 z m 0 0"/>
        </clipPath>
        <clipPath id="aR">
            <path d="m 16 40 h 96 c 4.417969 0 8 3.582031 8 8 v 56 c 0 4.417969 -3.582031 8 -8 8 h -96 c -4.417969 0 -8 -3.582031 -8 -8 v -56 c 0 -4.417969 3.582031 -8 8 -8 z m 0 0"/>
        </clipPath>
        <clipPath id="aS">
            <path d="m 114 67 h 6 v 8 h -6 z m 0 0"/>
        </clipPath>
        <clipPath id="aT">
            <path d="m 16 40 h 96 c 4.417969 0 8 3.582031 8 8 v 56 c 0 4.417969 -3.582031 8 -8 8 h -96 c -4.417969 0 -8 -3.582031 -8 -8 v -56 c 0 -4.417969 3.582031 -8 8 -8 z m 0 0"/>
        </clipPath>
        <clipPath id="aU">
            <path d="m 114 75 h 6 v 7 h -6 z m 0 0"/>
        </clipPath>
        <clipPath id="aV">
            <path d="m 16 40 h 96 c 4.417969 0 8 3.582031 8 8 v 56 c 0 4.417969 -3.582031 8 -8 8 h -96 c -4.417969 0 -8 -3.582031 -8 -8 v -56 c 0 -4.417969 3.582031 -8 8 -8 z m 0 0"/>
        </clipPath>
        <clipPath id="aW">
            <path d="m 114 82 h 6 v 8 h -6 z m 0 0"/>
        </clipPath>
        <clipPath id="aX">
            <path d="m 16 40 h 96 c 4.417969 0 8 3.582031 8 8 v 56 c 0 4.417969 -3.582031 8 -8 8 h -96 c -4.417969 0 -8 -3.582031 -8 -8 v -56 c 0 -4.417969 3.582031 -8 8 -8 z m 0 0"/>
        </clipPath>
        <clipPath id="aY">
            <path d="m 114 90 h 6 v 7 h -6 z m 0 0"/>
        </clipPath>
        <clipPath id="aZ">
            <path d="m 16 40 h 96 c 4.417969 0 8 3.582031 8 8 v 56 c 0 4.417969 -3.582031 8 -8 8 h -96 c -4.417969 0 -8 -3.582031 -8 -8 v -56 c 0 -4.417969 3.582031 -8 8 -8 z m 0 0"/>
        </clipPath>
        <clipPath id="a0">
            <path d="m 114 97 h 6 v 8 h -6 z m 0 0"/>
        </clipPath>
        <clipPath id="a1">
            <path d="m 16 40 h 96 c 4.417969 0 8 3.582031 8 8 v 56 c 0 4.417969 -3.582031 8 -8 8 h -96 c -4.417969 0 -8 -3.582031 -8 -8 v -56 c 0 -4.417969 3.582031 -8 8 -8 z m 0 0"/>
        </clipPath>
        <mask id="a2">
            <g filter="url(#d)">
                <rect fill-opacity="0.71" height="153.6" width="153.6" x="-12.8" y="-12.8"/>
            </g>
        </mask>
        <clipPath id="a3">
            <rect height="152" width="192"/>
        </clipPath>
    </defs>
    <g filter="url(#c)" transform="matrix(1 0 0 1 -12.8 -12.8)">
        <rect height="153.6" width="153.6"/>
    </g>
    <path d="m 16 40 h 96 c 4.433594 0 8 3.566406 8 8 v 56 c 0 4.433594 -3.566406 8 -8 8 h -96 c -4.433594 0 -8 -3.566406 -8 -8 v -56 c 0 -4.433594 3.566406 -8 8 -8 z m 0 0" fill="#deddda"/>
    <path d="m 99.800781 47.75 h 10.886719 c 0.550781 0 1 0.449219 1 1 v 14.570312 c 0 0.550782 -0.449219 1 -1 1 h -10.886719 c -0.550781 0 -1 -0.449218 -1 -1 v -14.570312 c 0 -0.550781 0.449219 -1 1 -1 z m 0 0" fill="#1a5fb4"/>
    <path d="m 51.042969 64.644531 v 5.179688 h -6.070313 v 1.171875 l 6.070313 6.378906 l 6.070312 6.375 l 6.070313 -6.375 l 0.023437 -0.023438 l 6.046875 -6.355468 h -0.015625 v -1.171875 h -6.03125 v -5.179688 z m 0 0" fill="#813d9c"/>
    <path d="m 57.097656 82.578125 l -6.074218 -6.375 l -6.070313 -6.378906 h 6.070313 v -6.351563 h 12.164062 v 6.351563 h 6.050781 l -6.050781 6.355469 l -0.019531 0.023437 z m 0 0" fill="#c061cb"/>
    <path d="m 70.902344 73.421875 l -6.070313 6.375 l -5.210937 5.480469 h -0.859375 v 0.898437 h 6.070312 v 6.351563 h 12.164063 v -6.351563 h 6.046875 v -0.898437 h -0.855469 l -5.191406 -5.457032 l -0.019532 -0.023437 z m 0 0" fill="#63452c"/>
    <path d="m 70.902344 72.527344 l -6.070313 6.375 l -6.070312 6.378906 h 6.070312 v 6.351562 h 12.164063 v -6.351562 h 6.046875 l -6.046875 -6.355469 l -0.023438 -0.023437 z m 0 0" fill="#986a44"/>
    <g clip-path="url(#o)">
        <g clip-path="url(#p)">
            <path d="m 9.847656 40 l -2.996094 5.203125 h 3.734376 l 2.996093 -5.203125 z m 0 0" fill="#1a5fb4"/>
        </g>
    </g>
    <g clip-path="url(#q)">
        <g clip-path="url(#r)">
            <path d="m 17.316406 40 l -2.996094 5.203125 h 3.734376 l 2.996093 -5.203125 z m 0 0" fill="#c01c28"/>
        </g>
    </g>
    <g clip-path="url(#s)">
        <g clip-path="url(#t)">
            <path d="m 24.785156 40 l -2.996094 5.203125 h 3.738282 l 2.992187 -5.203125 z m 0 0" fill="#1a5fb4"/>
        </g>
    </g>
    <g clip-path="url(#u)">
        <g clip-path="url(#v)">
            <path d="m 32.253906 40 l -2.992187 5.203125 h 3.734375 l 2.996094 -5.203125 z m 0 0" fill="#c01c28"/>
        </g>
    </g>
    <g clip-path="url(#w)">
        <g clip-path="url(#x)">
            <path d="m 39.726562 40 l -2.996093 5.203125 h 3.734375 l 2.996094 -5.203125 z m 0 0" fill="#1a5fb4"/>
        </g>
    </g>
    <g clip-path="url(#y)">
        <g clip-path="url(#z)">
            <path d="m 47.195312 40 l -2.996093 5.203125 h 3.734375 l 2.996094 -5.203125 z m 0 0" fill="#c01c28"/>
        </g>
    </g>
    <g clip-path="url(#A)">
        <g clip-path="url(#B)">
            <path d="m 54.664062 40 l -2.996093 5.203125 h 3.734375 l 2.996094 -5.203125 z m 0 0" fill="#1a5fb4"/>
        </g>
    </g>
    <g clip-path="url(#C)">
        <g clip-path="url(#D)">
            <path d="m 62.132812 40 l -2.996093 5.203125 h 3.734375 l 2.996094 -5.203125 z m 0 0" fill="#c01c28"/>
        </g>
    </g>
    <g clip-path="url(#E)">
        <g clip-path="url(#F)">
            <path d="m 69.601562 40 l -2.992187 5.203125 h 3.734375 l 2.992188 -5.203125 z m 0 0" fill="#1a5fb4"/>
        </g>
    </g>
    <g clip-path="url(#G)">
        <g clip-path="url(#H)">
            <path d="m 77.074219 40 l -2.996094 5.203125 h 3.734375 l 2.996094 -5.203125 z m 0 0" fill="#c01c28"/>
        </g>
    </g>
    <g clip-path="url(#I)">
        <g clip-path="url(#J)">
            <path d="m 84.542969 40 l -2.996094 5.203125 h 3.734375 l 2.996094 -5.203125 z m 0 0" fill="#1a5fb4"/>
        </g>
    </g>
    <g clip-path="url(#K)">
        <g clip-path="url(#L)">
            <path d="m 92.011719 40 l -2.996094 5.203125 h 3.734375 l 2.996094 -5.203125 z m 0 0" fill="#c01c28"/>
        </g>
    </g>
    <g clip-path="url(#M)">
        <g clip-path="url(#N)">
            <path d="m 99.480469 40 l -2.996094 5.203125 h 3.734375 l 2.996094 -5.203125 z m 0 0" fill="#1a5fb4"/>
        </g>
    </g>
    <g clip-path="url(#O)">
        <g clip-path="url(#P)">
            <path d="m 106.949219 40 l -2.992188 5.203125 h 3.734375 l 2.992188 -5.203125 z m 0 0" fill="#c01c28"/>
        </g>
    </g>
    <g clip-path="url(#Q)">
        <g clip-path="url(#R)">
            <path d="m 114.417969 40 l -2.992188 5.203125 h 3.734375 l 2.996094 -5.203125 z m 0 0" fill="#1a5fb4"/>
        </g>
    </g>
    <g clip-path="url(#S)">
        <g clip-path="url(#T)">
            <path d="m 16.578125 106.601562 l -2.996094 5.398438 h 3.734375 l 2.996094 -5.398438 z m 0 0" fill="#c01c28"/>
        </g>
    </g>
    <g clip-path="url(#U)">
        <g clip-path="url(#V)">
            <path d="m 24.046875 106.601562 l -2.996094 5.398438 h 3.734375 l 2.996094 -5.398438 z m 0 0" fill="#1a5fb4"/>
        </g>
    </g>
    <g clip-path="url(#W)">
        <g clip-path="url(#X)">
            <path d="m 31.515625 106.601562 l -2.996094 5.398438 h 3.734375 l 2.996094 -5.398438 z m 0 0" fill="#c01c28"/>
        </g>
    </g>
    <g clip-path="url(#Y)">
        <g clip-path="url(#Z)">
            <path d="m 38.984375 106.601562 l -2.996094 5.398438 h 3.734375 l 2.996094 -5.398438 z m 0 0" fill="#1a5fb4"/>
        </g>
    </g>
    <g clip-path="url(#aa)">
        <g clip-path="url(#ab)">
            <path d="m 46.453125 106.601562 l -2.996094 5.398438 h 3.738281 l 2.992188 -5.398438 z m 0 0" fill="#c01c28"/>
        </g>
    </g>
    <g clip-path="url(#ac)">
        <g clip-path="url(#ad)">
            <path d="m 53.921875 106.601562 l -2.992187 5.398438 h 3.734374 l 2.996094 -5.398438 z m 0 0" fill="#1a5fb4"/>
        </g>
    </g>
    <g clip-path="url(#ae)">
        <g clip-path="url(#af)">
            <path d="m 61.394531 106.601562 l -2.996093 5.398438 h 3.734374 l 2.996094 -5.398438 z m 0 0" fill="#c01c28"/>
        </g>
    </g>
    <g clip-path="url(#ag)">
        <g clip-path="url(#ah)">
            <path d="m 68.863281 106.601562 l -2.996093 5.398438 h 3.734374 l 2.996094 -5.398438 z m 0 0" fill="#1a5fb4"/>
        </g>
    </g>
    <g clip-path="url(#ai)">
        <g clip-path="url(#aj)">
            <path d="m 76.332031 106.601562 l -2.996093 5.398438 h 3.734374 l 2.996094 -5.398438 z m 0 0" fill="#c01c28"/>
        </g>
    </g>
    <g clip-path="url(#ak)">
        <g clip-path="url(#al)">
            <path d="m 83.800781 106.601562 l -2.996093 5.398438 h 3.738281 l 2.992187 -5.398438 z m 0 0" fill="#1a5fb4"/>
        </g>
    </g>
    <g clip-path="url(#am)">
        <g clip-path="url(#an)">
            <path d="m 91.269531 106.601562 l -2.992187 5.398438 h 3.734375 l 2.996093 -5.398438 z m 0 0" fill="#c01c28"/>
        </g>
    </g>
    <g clip-path="url(#ao)">
        <g clip-path="url(#ap)">
            <path d="m 98.742188 106.601562 l -2.996094 5.398438 h 3.734375 l 2.996093 -5.398438 z m 0 0" fill="#1a5fb4"/>
        </g>
    </g>
    <g clip-path="url(#aq)">
        <g clip-path="url(#ar)">
            <path d="m 106.210938 106.601562 l -2.996094 5.398438 h 3.734375 l 2.996093 -5.398438 z m 0 0" fill="#c01c28"/>
        </g>
    </g>
    <g clip-path="url(#as)">
        <g clip-path="url(#at)">
            <path d="m 113.679688 106.601562 l -2.996094 5.398438 h 3.734375 l 2.996093 -5.398438 z m 0 0" fill="#1a5fb4"/>
        </g>
    </g>
    <g clip-path="url(#au)">
        <g clip-path="url(#av)">
            <path d="m 7.980469 44.476562 v 3.734376 l 5.601562 2.996093 v -3.734375 z m 0 0" fill="#c01c28"/>
        </g>
    </g>
    <g clip-path="url(#aw)">
        <g clip-path="url(#ax)">
            <path d="m 7.980469 51.945312 v 3.734376 l 5.601562 2.996093 v -3.734375 z m 0 0" fill="#1a5fb4"/>
        </g>
    </g>
    <g clip-path="url(#ay)">
        <g clip-path="url(#az)">
            <path d="m 7.980469 59.414062 v 3.734376 l 5.601562 2.996093 v -3.734375 z m 0 0" fill="#c01c28"/>
        </g>
    </g>
    <g clip-path="url(#aA)">
        <g clip-path="url(#aB)">
            <path d="m 7.980469 66.882812 v 3.734376 l 5.601562 2.996093 v -3.734375 z m 0 0" fill="#1a5fb4"/>
        </g>
    </g>
    <g clip-path="url(#aC)">
        <g clip-path="url(#aD)">
            <path d="m 7.980469 74.351562 v 3.738282 l 5.601562 2.992187 v -3.734375 z m 0 0" fill="#c01c28"/>
        </g>
    </g>
    <g clip-path="url(#aE)">
        <g clip-path="url(#aF)">
            <path d="m 7.980469 81.824219 v 3.734375 l 5.601562 2.996094 v -3.738282 z m 0 0" fill="#1a5fb4"/>
        </g>
    </g>
    <g clip-path="url(#aG)">
        <g clip-path="url(#aH)">
            <path d="m 7.980469 89.292969 v 3.734375 l 5.601562 2.996094 v -3.734376 z m 0 0" fill="#c01c28"/>
        </g>
    </g>
    <g clip-path="url(#aI)">
        <g clip-path="url(#aJ)">
            <path d="m 7.980469 96.761719 v 3.734375 l 5.601562 2.996094 v -3.734376 z m 0 0" fill="#1a5fb4"/>
        </g>
    </g>
    <g clip-path="url(#aK)">
        <g clip-path="url(#aL)">
            <path d="m 7.980469 104.230469 v 3.734375 l 5.601562 2.996094 v -3.734376 z m 0 0" fill="#c01c28"/>
        </g>
    </g>
    <g clip-path="url(#aM)">
        <g clip-path="url(#aN)">
            <path d="m 114.789062 45.203125 v 3.734375 l 5.210938 2.996094 v -3.734375 z m 0 0" fill="#c01c28"/>
        </g>
    </g>
    <g clip-path="url(#aO)">
        <g clip-path="url(#aP)">
            <path d="m 114.789062 52.671875 v 3.734375 l 5.210938 2.996094 v -3.734375 z m 0 0" fill="#1a5fb4"/>
        </g>
    </g>
    <g clip-path="url(#aQ)">
        <g clip-path="url(#aR)">
            <path d="m 114.789062 60.140625 v 3.734375 l 5.210938 2.996094 v -3.734375 z m 0 0" fill="#c01c28"/>
        </g>
    </g>
    <g clip-path="url(#aS)">
        <g clip-path="url(#aT)">
            <path d="m 114.789062 67.609375 v 3.734375 l 5.210938 2.996094 v -3.734375 z m 0 0" fill="#1a5fb4"/>
        </g>
    </g>
    <g clip-path="url(#aU)">
        <g clip-path="url(#aV)">
            <path d="m 114.789062 75.078125 v 3.738281 l 5.210938 2.992188 v -3.734375 z m 0 0" fill="#c01c28"/>
        </g>
    </g>
    <g clip-path="url(#aW)">
        <g clip-path="url(#aX)">
            <path d="m 114.789062 82.550781 v 3.734375 l 5.210938 2.996094 v -3.738281 z m 0 0" fill="#1a5fb4"/>
        </g>
    </g>
    <g clip-path="url(#aY)">
        <g clip-path="url(#aZ)">
            <path d="m 114.789062 90.019531 v 3.734375 l 5.210938 2.996094 v -3.734375 z m 0 0" fill="#c01c28"/>
        </g>
    </g>
    <g clip-path="url(#a0)">
        <g clip-path="url(#a1)">
            <path d="m 114.789062 97.488281 v 3.734375 l 5.210938 2.996094 v -3.734375 z m 0 0" fill="#1a5fb4"/>
        </g>
    </g>
    <g mask="url(#a2)">
        <g clip-path="url(#a3)" transform="matrix(1 0 0 1 -8 -16)">
            <path d="m 107.191406 229.941406 c 0 4.070313 -3.285156 7.367188 -7.339844 7.367188 c -4.050781 0 -7.335937 -3.296875 -7.335937 -7.367188 c 0 -4.070312 3.285156 -7.367187 7.335937 -7.367187 c 4.054688 0 7.339844 3.296875 7.339844 7.367187 z m 0 0" fill="none" stroke="#f66151" stroke-linecap="round" stroke-width="1.61945" transform="matrix(1 0 0 1 8 -156)"/>
        </g>
    </g>
</svg>
